<svg width="40" height="40" viewBox="0 0 40 40" fill="none" xmlns="http://www.w3.org/2000/svg">
<path d="M11.6666 36.6667C10.75 36.6667 9.96496 36.34 9.31163 35.6867C8.65829 35.0333 8.33218 34.2489 8.33329 33.3333C8.33329 32.4167 8.65996 31.6317 9.31329 30.9783C9.96663 30.325 10.7511 29.9989 11.6666 30C12.5833 30 13.3683 30.3267 14.0216 30.98C14.675 31.6333 15.0011 32.4178 15 33.3333C15 34.25 14.6733 35.035 14.02 35.6883C13.3666 36.3417 12.5822 36.6678 11.6666 36.6667ZM28.3333 36.6667C27.4166 36.6667 26.6316 36.34 25.9783 35.6867C25.325 35.0333 24.9988 34.2489 25 33.3333C25 32.4167 25.3266 31.6317 25.98 30.9783C26.6333 30.325 27.4177 29.9989 28.3333 30C29.25 30 30.035 30.3267 30.6883 30.98C31.3416 31.6333 31.6677 32.4178 31.6666 33.3333C31.6666 34.25 31.34 35.035 30.6866 35.6883C30.0333 36.3417 29.2488 36.6678 28.3333 36.6667ZM10.25 10L14.25 18.3333H25.9166L30.5 10H10.25ZM8.66663 6.66667H33.25C33.8888 6.66667 34.375 6.95167 34.7083 7.52167C35.0416 8.09167 35.0555 8.66778 34.75 9.25L28.8333 19.9167C28.5277 20.4722 28.1177 20.9028 27.6033 21.2083C27.0888 21.5139 26.5266 21.6667 25.9166 21.6667H13.5L11.6666 25H31.6666V28.3333H11.6666C10.4166 28.3333 9.47218 27.7844 8.83329 26.6867C8.1944 25.5889 8.16663 24.4989 8.74996 23.4167L11 19.3333L4.99996 6.66667H1.66663V3.33334H7.08329L8.66663 6.66667Z" fill="white"/>
</svg>
