<svg width="40" height="40" viewBox="0 0 40 40" fill="none" xmlns="http://www.w3.org/2000/svg">
<path d="M6.66671 33.3333C5.75004 33.3333 4.96504 33.0067 4.31171 32.3533C3.65838 31.7 3.33227 30.9156 3.33338 30V10C3.33338 9.08333 3.66004 8.29833 4.31338 7.645C4.96671 6.99167 5.75115 6.66556 6.66671 6.66667H33.3334C34.25 6.66667 35.035 6.99333 35.6884 7.64667C36.3417 8.3 36.6678 9.08444 36.6667 10V30C36.6667 30.9167 36.34 31.7017 35.6867 32.355C35.0334 33.0083 34.2489 33.3344 33.3334 33.3333H6.66671ZM20 21.6667L6.66671 13.3333V30H33.3334V13.3333L20 21.6667ZM20 18.3333L33.3334 10H6.66671L20 18.3333ZM6.66671 13.3333V10V30V13.3333Z" fill="white"/>
</svg>
