<svg width="24" height="20" viewBox="0 0 24 20" fill="none" xmlns="http://www.w3.org/2000/svg">
<path d="M24 4.4187V16.25C24.0001 17.2065 23.6492 18.1268 23.0193 18.8228C22.3893 19.5187 21.5279 19.9376 20.6112 19.9937L20.4 20H3.6C2.68175 20 1.79818 19.6345 1.13009 18.9783C0.461992 18.3221 0.059871 17.4248 0.00600014 16.47L0 16.25V4.4187L11.334 12.29L11.4732 12.3725C11.6372 12.4559 11.8174 12.4993 12 12.4993C12.1826 12.4993 12.3628 12.4559 12.5268 12.3725L12.666 12.29L24 4.4187Z" fill="white"/>
<path d="M20.4001 0C21.6961 0 22.8325 0.7125 23.4661 1.78375L12.0001 9.74625L0.534058 1.78375C0.834934 1.27471 1.24831 0.848002 1.73971 0.539228C2.2311 0.230455 2.78626 0.0485703 3.35886 0.00874996L3.60006 0H20.4001Z" fill="white"/>
</svg>
